PathFileType	4	(X/Y/Z)	D:/Dropbox/2017/2017-10 SOFAMEA OpenSim seminar/OpenSim workshop LucaClement/Hands-on_Paris2017_Luca/For Participants/3_Scaling/transformed_Static_for_scaling.trc	
DataRate	CameraRate	NumFrames	NumMarkers	Units	OrigDataRate	OrigDataStartFrame	OrigNumFrames	
120.00	120.00	4	47	mm	120.00	610	697	
Frame#	Time	Sternum			Neck			RShoulder			LShoulder			Xiphoid			Thoracic			RAsis			LAsis			RPsis			LPsis			LThighSuperior			LThighInferior			LThighLateral			LKneeLateral			LKneeMedial			LShankSuperior			LShankInferior			LShankLateral			LAnkleLateral			LAnkleMedial			RThighSuperior			RThighInferior			RThighLateral			RKneeLateral			RShankSuperior			RShankInferior			RShankLateral			RAnkleLateral			RankleMedial			RHeel			RToe			RMidfootMedial			RMidfootLateral			RHindfoot			RMidfootSuperior			RToeMedial			RToeLateral			LHeel			LToe			LMidfootMedial			LMidfootLateral			LHindfoot			LMidfootSuperior			LToeMedial			LToeLateral			RKneeMedial			Sacral			
		X1	Y1	Z1	X2	Y2	Z2	X3	Y3	Z3	X4	Y4	Z4	X5	Y5	Z5	X6	Y6	Z6	X7	Y7	Z7	X8	Y8	Z8	X9	Y9	Z9	X10	Y10	Z10	X11	Y11	Z11	X12	Y12	Z12	X13	Y13	Z13	X14	Y14	Z14	X15	Y15	Z15	X16	Y16	Z16	X17	Y17	Z17	X18	Y18	Z18	X19	Y19	Z19	X20	Y20	Z20	X21	Y21	Z21	X22	Y22	Z22	X23	Y23	Z23	X24	Y24	Z24	X25	Y25	Z25	X26	Y26	Z26	X27	Y27	Z27	X28	Y28	Z28	X29	Y29	Z29	X30	Y30	Z30	X31	Y31	Z31	X32	Y32	Z32	X33	Y33	Z33	X34	Y34	Z34	X35	Y35	Z35	X36	Y36	Z36	X37	Y37	Z37	X38	Y38	Z38	X39	Y39	Z39	X40	Y40	Z40	X41	Y41	Z41	X42	Y42	Z42	X43	Y43	Z43	X44	Y44	Z44	X45	Y45	Z45	X46	Y46	Z46	X47	Y47	Z47	

610	5.075	531.89856	1455.29700	-467.08688	378.82770	1572.20313	-456.92676	428.08969	1555.02490	-302.08307	404.66415	1553.53857	-602.05292	558.60364	1301.95825	-457.61182	289.73285	1351.80518	-451.95016	488.32077	1039.33069	-323.90878	500.92102	1044.44482	-605.07428	302.35208	1066.81641	-413.70929	300.85709	1066.12305	-516.07477	443.52893	873.52722	-659.27252	470.33344	642.85321	-640.84363	544.09412	747.73035	-587.78278	475.27475	557.95142	-643.37439	470.10999	564.19525	-502.18527	466.38232	405.58276	-661.40460	429.92218	204.87334	-643.14923	488.89975	294.20731	-602.44006	410.78543	124.30354	-643.61182	439.71661	125.12466	-558.00018	424.96811	846.63873	-287.31485	440.45078	610.43610	-310.92545	529.07397	764.59827	-340.15350	433.15323	545.43756	-309.84357	420.27963	448.76202	-304.11804	413.84955	194.39644	-335.86389	479.99365	318.75064	-367.86279	405.05991	119.95613	-339.34061	437.14545	137.31252	-425.75369	332.11749	79.51159	-394.43399	646.32544	62.95290	-351.67163	553.20074	49.56415	-414.42584	541.24762	43.47057	-295.56958	486.63232	43.66322	-309.84174	514.54346	110.95460	-364.35623	598.03021	50.29431	-403.97626	588.95386	48.48301	-301.05286	341.64566	83.29337	-590.98907	648.89581	74.19711	-642.70807	555.66968	50.78698	-578.55145	541.93243	47.16537	-694.81885	487.95309	46.54680	-680.06128	523.64801	112.73147	-625.60596	597.45117	51.55393	-586.85162	586.26959	56.96271	-690.15002	477.03635	543.21362	-446.31052	301.60458	1066.46973	-464.89203 
611	5.083	531.94574	1455.33289	-466.97498	378.81580	1572.22021	-456.84912	428.13437	1555.03076	-302.04889	404.73001	1553.55908	-602.03314	558.64111	1302.00659	-457.53674	289.77127	1351.82935	-451.96042	488.36011	1039.33667	-323.92395	500.94287	1044.44458	-605.07629	302.37872	1066.83301	-413.71060	300.93616	1066.13367	-516.13293	443.55548	873.54675	-659.29120	470.35153	642.84821	-640.86914	544.16620	747.74774	-587.83398	475.61398	558.02130	-643.52161	470.26389	564.18536	-502.25168	466.40125	405.57425	-661.42316	429.87515	204.84341	-643.13470	488.93497	294.19318	-602.51019	410.93619	124.39024	-643.63971	439.71194	125.14276	-557.99908	425.00336	846.65344	-287.38660	440.48578	610.44611	-310.96143	529.13470	764.59674	-340.21967	433.14130	545.45490	-309.83905	420.28531	448.74930	-304.12918	413.84207	194.41048	-335.88635	479.99881	318.75317	-367.86124	405.05716	119.93538	-339.34363	437.12051	137.28436	-425.74829	332.05643	79.56372	-394.65332	646.34436	62.94353	-351.66354	553.13751	49.51616	-414.73322	541.24780	43.57399	-295.52673	486.62766	43.65838	-309.80835	515.06244	110.47328	-365.24481	598.02783	50.27644	-403.96185	588.94672	48.50133	-301.02771	341.66586	83.18029	-590.92108	648.92212	74.20845	-642.74365	555.66168	50.77050	-578.55316	541.96674	47.17205	-694.82001	487.99014	46.55149	-680.07550	523.65552	112.74123	-625.59528	597.44073	51.56314	-586.86139	586.29303	56.95471	-690.16394	477.05371	543.19806	-446.34415	301.65744	1066.48340	-464.92175 
612	5.092	532.01135	1455.32922	-466.96014	378.87448	1572.20630	-456.84744	428.18784	1555.02258	-302.02393	404.80295	1553.55896	-601.98529	558.51422	1301.86865	-457.80112	289.80453	1351.82129	-451.94614	488.42203	1039.31970	-323.98370	501.02365	1044.47205	-605.18164	302.41763	1066.84351	-413.73001	300.93912	1066.14258	-516.13080	443.60245	873.52368	-659.35901	470.41159	642.86328	-640.90692	544.16565	747.73517	-587.85870	475.61563	557.93213	-643.68335	470.33423	563.99835	-502.54010	466.47391	405.59607	-661.48517	429.96478	204.86220	-643.14368	488.93729	294.18008	-602.52136	410.88837	124.45395	-643.57074	439.71359	125.14380	-557.99933	425.04178	846.65717	-287.40457	440.63373	610.46155	-310.91687	529.15308	764.59106	-340.24768	433.16412	545.47937	-309.86639	420.27664	448.82593	-304.13391	413.85828	194.40607	-335.89664	479.99323	318.74670	-367.86935	405.05838	119.94705	-339.34811	437.10712	137.27103	-425.74481	332.10123	79.59767	-394.47324	646.34735	62.96079	-351.61780	553.24738	49.61240	-414.48065	541.24719	43.57264	-295.51660	486.64096	43.62802	-309.79544	514.60583	110.92387	-364.47989	598.05371	50.28431	-403.97510	588.95380	48.48296	-301.05295	341.68381	83.17903	-590.92334	648.93793	74.16563	-642.84821	555.66937	50.77887	-578.53473	541.96967	47.17379	-694.82196	488.00812	46.54139	-680.06885	523.67572	112.74384	-625.59344	597.44366	51.57185	-586.83960	586.31244	56.93262	-690.17957	477.07211	543.19354	-446.37354	301.67838	1066.49304	-464.93042 
613	5.100	532.09412	1455.30054	-466.94861	378.90900	1572.21619	-456.82593	428.24615	1555.00964	-301.99405	404.87604	1553.58618	-601.95178	558.51385	1301.84021	-457.81989	289.87061	1351.81580	-451.95566	488.46814	1039.31567	-324.00134	500.82135	1044.46362	-604.98407	302.47919	1066.85535	-413.74197	300.96295	1066.17102	-516.14490	443.69650	873.57678	-659.40735	470.57739	642.84668	-641.00879	544.21204	747.74127	-587.87787	475.65164	557.94635	-643.75421	470.44379	563.96295	-502.59949	466.51471	405.62012	-661.57190	430.05051	204.89261	-643.20154	488.95938	294.17673	-602.52478	410.85443	124.31266	-643.66394	439.73645	125.11481	-558.01776	425.09244	846.67853	-287.41080	440.49475	610.46240	-311.01346	529.18054	764.58514	-340.31955	433.15753	545.48584	-309.86032	420.29636	448.80011	-304.19952	413.84778	194.44914	-335.81448	480.01813	318.75876	-367.89304	405.06061	119.95770	-339.33716	437.10654	137.27353	-425.74323	332.06201	79.59427	-394.45264	646.34058	62.92989	-351.65567	552.68884	49.16700	-413.74237	541.20667	43.50859	-295.52963	486.66071	43.59646	-309.82407	514.52740	110.94685	-364.32373	598.04907	50.26773	-403.95251	588.94080	48.48046	-301.03223	341.65091	83.19299	-590.90887	648.93085	74.14186	-642.74750	555.67261	50.76215	-578.52582	542.00311	47.17712	-694.83734	488.22006	46.58250	-680.15320	523.67657	112.74184	-625.59271	597.44318	51.57542	-586.83405	586.33795	56.94978	-690.18634	477.07861	543.18085	-446.39075	301.72107	1066.51318	-464.94342 
